<svg width='24' height='20' xmlns="http://www.w3.org/2000/svg">
  <!-- shape -->
  <path 
    stroke="#588157"
    stroke-linecap="round" 
    stroke-linejoin="round"
    fill="transparent"
    d="M 9.5 2.5 l 1.25 0 c 5 0 5 7.5 0 7.5 l -6.25 0 m 1 0 l 0 -7.5 m -1 0 l 3 0"
  />
  <path 
    stroke="#588157"
    stroke-linecap="round" 
    stroke-linejoin="round"
    fill="transparent"
    d="M 14.5 2.5 l 1.25 0 c 5 0 5 7.5 0 7.5 l -2 0 c -5 0 -5 -7.5 0 -7.5 l 1.25 0 z"
  />
  <!-- text -->
  <path 
    stroke="#588157" 
    stroke-width="0.4" 
    stroke-linecap="round" 
    stroke-linejoin="round"
    fill="transparent"
    d="M 2 12.5 l 4 0 m -2 0 l 0 3"
  />
  <path 
    stroke="#588157" 
    stroke-width="0.4" 
    stroke-linecap="round" 
    stroke-linejoin="round"
    fill="transparent"
    d="M 9 12.5 l 0.5 0 c 2 0 2 3 0 3 l -0.8 0 c -2 0 -2 -3 0 -3 l 0.5 0 z"
  />
  <path 
    stroke="#588157" 
    stroke-width="0.4" 
    stroke-linecap="round" 
    stroke-linejoin="round"
    fill="transparent"
    d="M 14.5 12.5 l 0.5 0 c 2 0 2 3 0 3 l -2.5 0 m 0.4 0 l 0 -3 m -0.4 0 l 2 0 "
  />
  <path 
    stroke="#588157" 
    stroke-width="0.4" 
    stroke-linecap="round" 
    stroke-linejoin="round"
    fill="transparent"
    d="M 20 12.5 l 0.5 0 c 2 0 2 3 0 3 l -0.8 0 c -2 0 -2 -3 0 -3 l 0.5 0 z"
  />
</svg>