<svg width='24' height='5' xmlns="http://www.w3.org/2000/svg">
  <path 
    stroke="#588157" 
    stroke-width="0.4" 
    stroke-linecap="round" 
    stroke-linejoin="round"
    fill="transparent"
    d="M 2 1 l 4 0 m -2 0 l 0 3"
  />
  <path 
    stroke="#588157" 
    stroke-width="0.4" 
    stroke-linecap="round" 
    stroke-linejoin="round"
    fill="transparent"
    d="M 9 1 l 0.5 0 c 2 0 2 3 0 3 l -0.8 0 c -2 0 -2 -3 0 -3 l 0.5 0 z"
  />
  <path 
    stroke="#588157" 
    stroke-width="0.4" 
    stroke-linecap="round" 
    stroke-linejoin="round"
    fill="transparent"
    d="M 14.5 1 l 0.5 0 c 2 0 2 3 0 3 l -2.5 0 m 0.4 0 l 0 -3 m -0.4 0 l 2 0 "
  />
  <path 
    stroke="#588157" 
    stroke-width="0.4" 
    stroke-linecap="round" 
    stroke-linejoin="round"
    fill="transparent"
    d="M 20 1 l 0.5 0 c 2 0 2 3 0 3 l -0.8 0 c -2 0 -2 -3 0 -3 l 0.5 0 z"
  />
</svg>